<svg width="254" height="89" viewBox="0 0 254 89" fill="none" xmlns="http://www.w3.org/2000/svg">
<rect y="55.1377" width="247" height="15.2104" rx="2" fill="#494949"/>
<rect x="68" width="186" height="63.6935" rx="5" fill="#AF8AFF"/>
<path d="M139.541 40.2598L139.518 37.7051L145.612 32.1035C147.205 30.5801 148.049 29.6426 148.049 28.3066C148.049 26.8066 146.901 25.8691 145.354 25.8691C143.76 25.8691 142.729 26.877 142.729 28.4941H139.377C139.354 25.166 141.815 23.0566 145.401 23.0566C149.034 23.0566 151.448 25.1191 151.448 28.0723C151.448 29.9941 150.51 31.5879 147.018 34.752L144.44 37.2598V37.3535H151.682V40.2598H139.541ZM160.16 40.4941C156.621 40.4941 154.043 38.4082 153.973 35.4785H157.395C157.465 36.8145 158.684 37.7051 160.16 37.7051C161.918 37.7051 163.16 36.4629 163.16 34.7051C163.16 32.9004 161.895 31.6582 160.113 31.6348C158.848 31.6348 157.957 32.1035 157.441 33.0645H154.254L155.168 23.291H165.621V26.1738H158.074L157.605 30.4629H157.746C158.379 29.6191 159.645 29.0332 161.145 29.0332C164.262 29.0332 166.582 31.3535 166.582 34.6113C166.582 38.0332 163.98 40.4941 160.16 40.4941ZM168.146 26.1973V23.291H182.045V26.1973H176.841V40.2598H173.349V26.1973H168.146Z" fill="white"/>
<path d="M0 29.8005C0 19.1174 8.66034 10.457 19.3434 10.457H62C63.1046 10.457 64 11.3525 64 12.457V60.6934C64 62.3503 62.6569 63.6934 61 63.6934H4C1.79086 63.6934 0 61.9026 0 59.6934V29.8005Z" fill="#E3E3E3"/>
<path d="M7 32.6525C7 21.9694 15.6603 13.3091 26.3434 13.3091H42C43.1046 13.3091 44 14.2045 44 15.3091V39.7792C44 41.4361 42.6569 42.7792 41 42.7792H11C8.79086 42.7792 7 40.9884 7 38.7792V32.6525Z" fill="#7C7C7C"/>
<path d="M3 32.6525C3 21.9694 11.6603 13.3091 22.3434 13.3091H38C39.1046 13.3091 40 14.2045 40 15.3091V39.7792C40 41.4361 38.6569 42.7792 37 42.7792H7C4.79086 42.7792 3 40.9884 3 38.7792V32.6525Z" fill="#494949"/>
<ellipse cx="37.5" cy="73.675" rx="15.5" ry="14.7351" fill="#494949"/>
<ellipse cx="37.5" cy="73.6752" rx="9.5" ry="9.03117" fill="white"/>
<ellipse cx="189.5" cy="73.675" rx="15.5" ry="14.7351" fill="#494949"/>
<ellipse cx="220.5" cy="73.675" rx="15.5" ry="14.7351" fill="#494949"/>
<ellipse cx="158.5" cy="73.675" rx="15.5" ry="14.7351" fill="#494949"/>
<ellipse cx="189.5" cy="73.6752" rx="9.5" ry="9.03117" fill="white"/>
<ellipse cx="220.5" cy="73.6752" rx="9.5" ry="9.03117" fill="white"/>
<ellipse cx="158.5" cy="73.6752" rx="9.5" ry="9.03117" fill="white"/>
<rect x="35" y="44.6807" width="9" height="2.85195" rx="1.42597" fill="#7C7C7C"/>
</svg>
