<svg width="189" height="78" viewBox="0 0 189 78" fill="none" xmlns="http://www.w3.org/2000/svg">
<rect y="44.6807" width="177" height="15.2104" rx="2" fill="#494949"/>
<rect x="67" y="24.7168" width="122" height="29.4701" rx="3" fill="#AF8AFF"/>
<ellipse cx="153.5" cy="63.218" rx="15.5" ry="14.7351" fill="#494949"/>
<ellipse cx="153.5" cy="63.2182" rx="9.5" ry="9.03117" fill="white"/>
<path d="M0 19.3434C0 8.66036 8.66034 0 19.3434 0H62C63.1046 0 64 0.895431 64 2V50.2364C64 51.8932 62.6569 53.2364 61 53.2364H4C1.79086 53.2364 0 51.4455 0 49.2364V19.3434Z" fill="#E3E3E3"/>
<path d="M7 22.1955C7 11.5124 15.6603 2.85205 26.3434 2.85205H42C43.1046 2.85205 44 3.74748 44 4.85205V29.3222C44 30.979 42.6569 32.3222 41 32.3222H11C8.79086 32.3222 7 30.5313 7 28.3222V22.1955Z" fill="#7C7C7C"/>
<path d="M3 22.1955C3 11.5124 11.6603 2.85205 22.3434 2.85205H38C39.1046 2.85205 40 3.74748 40 4.85205V29.3222C40 30.979 38.6569 32.3222 37 32.3222H7C4.79086 32.3222 3 30.5313 3 28.3222V22.1955Z" fill="#494949"/>
<ellipse cx="37.5" cy="63.218" rx="15.5" ry="14.7351" fill="#494949"/>
<ellipse cx="37.5" cy="63.2182" rx="9.5" ry="9.03117" fill="white"/>
<path d="M121.944 31.335V48.3037H118.405V34.6865H118.312L114.421 37.124V34.0068L118.616 31.335H121.944ZM125.056 34.2412V31.335H138.954V34.2412H133.751V48.3037H130.259V34.2412H125.056Z" fill="white"/>
<rect x="35" y="35.3037" width="9" height="3" rx="1.5" fill="#7C7C7C"/>
</svg>
