<svg width="207" height="90" viewBox="0 0 207 90" fill="none" xmlns="http://www.w3.org/2000/svg">
<rect y="56.0884" width="194" height="15.2104" rx="2" fill="#494949"/>
<rect x="69" y="5.44336" width="127.875" height="59.2703" rx="2" fill="#FF685D"/>
<rect x="101.445" width="8.27055" height="55.0368" rx="1" fill="#FF685D"/>
<rect x="131.348" width="8.27055" height="55.0368" rx="1" fill="#FF685D"/>
<path d="M114.168 21.9302L195.024 5.83398C196.107 5.61832 197.178 6.31796 197.416 7.39667L206.353 47.9673C206.709 49.5853 205.681 51.1593 204.056 51.4828L144.776 63.2837C133.401 65.5481 122.158 58.2018 119.663 46.8754L114.168 21.9302Z" fill="#FF685D"/>
<path d="M124.968 45.2476C121.429 45.2476 118.851 43.1616 118.78 40.2319H122.202C122.273 41.5679 123.491 42.4585 124.968 42.4585C126.726 42.4585 127.968 41.2163 127.968 39.4585C127.968 37.6538 126.702 36.4116 124.921 36.3882C123.655 36.3882 122.765 36.8569 122.249 37.8179H119.062L119.976 28.0444H130.429V30.9272H122.882L122.413 35.2163H122.554C123.187 34.3726 124.452 33.7866 125.952 33.7866C129.069 33.7866 131.39 36.1069 131.39 39.3647C131.39 42.7866 128.788 45.2476 124.968 45.2476ZM132.954 30.9507V28.0444H146.852V30.9507H141.649V45.0132H138.157V30.9507H132.954Z" fill="white"/>
<path d="M0 30.7516C0 20.0686 8.66034 11.4082 19.3434 11.4082H62C63.1046 11.4082 64 12.3036 64 13.4082V61.6446C64 63.3014 62.6569 64.6446 61 64.6446H4C1.79086 64.6446 0 62.8537 0 60.6446V30.7516Z" fill="#E3E3E3"/>
<path d="M7 33.6032C7 22.9201 15.6603 14.2598 26.3434 14.2598H42C43.1046 14.2598 44 15.1552 44 16.2598V40.7299C44 42.3868 42.6569 43.7299 41 43.7299H11C8.79086 43.7299 7 41.939 7 39.7299V33.6032Z" fill="#7C7C7C"/>
<path d="M3 33.6032C3 22.9201 11.6603 14.2598 22.3434 14.2598H38C39.1046 14.2598 40 15.1552 40 16.2598V40.7299C40 42.3868 38.6569 43.7299 37 43.7299H7C4.79086 43.7299 3 41.939 3 39.7299V33.6032Z" fill="#494949"/>
<ellipse cx="37.5" cy="74.6262" rx="15.5" ry="14.7351" fill="#494949"/>
<ellipse cx="167.5" cy="74.6262" rx="15.5" ry="14.7351" fill="#494949"/>
<rect x="35" y="46.582" width="9" height="2.85195" rx="1.42597" fill="#7C7C7C"/>
<ellipse cx="167.5" cy="74.6259" rx="9.5" ry="9.03117" fill="white"/>
<ellipse cx="37.5" cy="74.6259" rx="9.5" ry="9.03117" fill="white"/>
</svg>
