<svg width="189" height="97" viewBox="0 0 189 97" fill="none" xmlns="http://www.w3.org/2000/svg">
<rect y="62.7427" width="177" height="15.2104" rx="2" fill="#494949"/>
<rect x="68" width="121" height="72.2494" rx="3" fill="#FF685D"/>
<ellipse cx="153.5" cy="81.2805" rx="15.5" ry="14.7351" fill="#494949"/>
<ellipse cx="153.5" cy="81.2807" rx="9.5" ry="9.03117" fill="white"/>
<path d="M0 37.4059C0 26.7229 8.66034 18.0625 19.3434 18.0625H62C63.1046 18.0625 64 18.9579 64 20.0625V68.2989C64 69.9557 62.6569 71.2989 61 71.2989H4C1.79086 71.2989 0 69.508 0 67.2989V37.4059Z" fill="#E3E3E3"/>
<path d="M7 40.2575C7 29.5744 15.6603 20.9141 26.3434 20.9141H42C43.1046 20.9141 44 21.8095 44 22.9141V47.3842C44 49.0411 42.6569 50.3842 41 50.3842H11C8.79086 50.3842 7 48.5933 7 46.3842V40.2575Z" fill="#7C7C7C"/>
<path d="M3 40.2575C3 29.5744 11.6603 20.9141 22.3434 20.9141H38C39.1046 20.9141 40 21.8095 40 22.9141V47.3842C40 49.0411 38.6569 50.3842 37 50.3842H7C4.79086 50.3842 3 48.5933 3 46.3842V40.2575Z" fill="#494949"/>
<ellipse cx="37.5" cy="81.2805" rx="15.5" ry="14.7351" fill="#494949"/>
<ellipse cx="37.5" cy="81.2807" rx="9.5" ry="9.03117" fill="white"/>
<path d="M124.944 28.0439V45.0127H121.405V31.3955H121.312L117.421 33.833V30.7158L121.616 28.0439H124.944ZM128.056 30.9502V28.0439H141.954V30.9502H136.751V45.0127H133.259V30.9502H128.056Z" fill="white"/>
</svg>
