<svg width="217" height="97" viewBox="0 0 217 97" fill="none" xmlns="http://www.w3.org/2000/svg">
<rect y="62.7427" width="209" height="15.2104" rx="2" fill="#494949"/>
<path d="M0 37.4059C0 26.7229 8.66034 18.0625 19.3434 18.0625H62C63.1046 18.0625 64 18.9579 64 20.0625V68.2989C64 69.9557 62.6569 71.2989 61 71.2989H4C1.79086 71.2989 0 69.508 0 67.2989V37.4059Z" fill="#E3E3E3"/>
<path d="M7 40.2575C7 29.5744 15.6603 20.9141 26.3434 20.9141H42C43.1046 20.9141 44 21.8095 44 22.9141V47.3842C44 49.0411 42.6569 50.3842 41 50.3842H11C8.79086 50.3842 7 48.5933 7 46.3842V40.2575Z" fill="#7C7C7C"/>
<path d="M3 40.2575C3 29.5744 11.6603 20.9141 22.3434 20.9141H38C39.1046 20.9141 40 21.8095 40 22.9141V47.3842C40 49.0411 38.6569 50.3842 37 50.3842H7C4.79086 50.3842 3 48.5933 3 46.3842V40.2575Z" fill="#494949"/>
<ellipse cx="37.5" cy="81.2805" rx="15.5" ry="14.7351" fill="#494949"/>
<ellipse cx="37.5" cy="81.2807" rx="9.5" ry="9.03117" fill="white"/>
<path d="M215.347 35.5571C215.777 35.9368 216.023 36.4831 216.023 37.057V70.6572C216.023 71.7618 215.128 72.6572 214.023 72.6572H70C68.8954 72.6572 68 71.7618 68 70.6572V2C68 0.89543 68.8954 0 70 0H174.283C174.77 0 175.241 0.177855 175.606 0.500172L215.347 35.5571Z" fill="#FF685D"/>
<path d="M120.044 45.2476C116.318 45.2476 113.646 43.1851 113.576 40.2319H117.138C117.208 41.4976 118.427 42.3413 120.068 42.3413C121.755 42.3413 122.974 41.3804 122.951 40.021C122.974 38.6382 121.732 37.6538 119.74 37.6538H118.169V35.0522H119.74C121.404 35.0522 122.576 34.1382 122.576 32.8022C122.576 31.5132 121.591 30.6226 120.091 30.6226C118.591 30.6226 117.349 31.4663 117.302 32.7554H113.927C113.974 29.8257 116.623 27.8101 120.091 27.8101C123.63 27.8101 125.998 29.896 125.974 32.5913C125.998 34.4897 124.662 35.8491 122.763 36.1772V36.3179C125.248 36.6226 126.63 38.146 126.607 40.2554C126.63 43.1616 123.865 45.2476 120.044 45.2476ZM130.398 45.2241C129.296 45.2241 128.405 44.3335 128.429 43.2554C128.405 42.1772 129.296 41.3101 130.398 41.3101C131.429 41.3101 132.343 42.1772 132.343 43.2554C132.343 44.3335 131.429 45.2241 130.398 45.2241ZM140.938 45.2476C137.399 45.2476 134.821 43.1616 134.751 40.2319H138.173C138.243 41.5679 139.462 42.4585 140.938 42.4585C142.696 42.4585 143.938 41.2163 143.938 39.4585C143.938 37.6538 142.673 36.4116 140.891 36.3882C139.626 36.3882 138.735 36.8569 138.22 37.8179H135.032L135.946 28.0444H146.399V30.9272H138.852L138.384 35.2163H138.524C139.157 34.3726 140.423 33.7866 141.923 33.7866C145.04 33.7866 147.36 36.1069 147.36 39.3647C147.36 42.7866 144.759 45.2476 140.938 45.2476ZM148.924 30.9507V28.0444H162.823V30.9507H157.62V45.0132H154.127V30.9507H148.924Z" fill="white"/>
<rect x="35" y="53.2363" width="9" height="2.85195" rx="1.42597" fill="#7C7C7C"/>
<ellipse cx="176.5" cy="81.2805" rx="15.5" ry="14.7351" fill="#494949"/>
<ellipse cx="176.5" cy="81.2807" rx="9.5" ry="9.03117" fill="white"/>
</svg>
