<svg width="55" height="24" viewBox="0 0 55 24" fill="none" xmlns="http://www.w3.org/2000/svg">
<rect width="55" height="24" rx="4" fill="#59B9FF"/>
<path d="M20.3733 8.67188C20.3733 9.92236 21.0207 11.1538 22.5569 11.7441L21.6936 12.9756C20.7033 12.6011 20.0241 11.9155 19.6115 11.0649C19.1926 12.0615 18.469 12.8931 17.3899 13.3438L16.5139 12.0996C18.1452 11.3823 18.799 9.96045 18.799 8.67188V7.31348H20.3733V8.67188ZM18.6594 16.0098C18.653 14.6577 20.2082 13.8452 22.6584 13.8516C25.0959 13.8452 26.6574 14.6577 26.6701 16.0098C26.6574 17.3491 25.0959 18.1743 22.6584 18.168C20.2082 18.1743 18.653 17.3491 18.6594 16.0098ZM20.2844 16.0098C20.2717 16.6318 21.1413 16.9492 22.6584 16.9492C24.1628 16.9492 25.0324 16.6318 25.0324 16.0098C25.0324 15.3813 24.1628 15.0576 22.6584 15.0576C21.1413 15.0576 20.2717 15.3813 20.2844 16.0098ZM22.5949 13.3311V6.83105H24.1057V9.44629H25.0705V6.62793H26.6067V13.6865H25.0705V10.7539H24.1057V13.3311H22.5949ZM37.0135 6.61523V9.34473H38.4861V10.6904H37.0135V13.4199H35.3885V6.61523H37.0135ZM27.6443 12.1758C28.4886 12.1758 29.4471 12.1758 30.45 12.1567V11.6489C29.1868 11.4902 28.4124 10.9697 28.4187 10.1445C28.4124 9.20508 29.5232 8.65283 31.2498 8.65918C32.9637 8.65283 34.0745 9.20508 34.0808 10.1445C34.0745 10.9634 33.3064 11.4839 32.0623 11.6426V12.0996C33.0144 12.0488 33.9602 11.9727 34.8553 11.8584L34.9695 12.8613C32.5066 13.2739 29.8279 13.293 27.8094 13.293L27.6443 12.1758ZM27.949 8.41797V7.33887H30.45V6.51367H32.0623V7.33887H34.5633V8.41797H27.949ZM29.1805 14.9053V13.8262H37.0135V16.416H30.8181V17.0127H37.3943V18.0918H29.1931V15.4385H35.3885V14.9053H29.1805ZM29.9676 10.1445C29.9612 10.4937 30.4246 10.6714 31.2498 10.6777C32.0623 10.6714 32.5257 10.4937 32.532 10.1445C32.5257 9.80811 32.0623 9.66211 31.2498 9.66211C30.4246 9.66211 29.9612 9.80811 29.9676 10.1445Z" fill="white"/>
</svg>
