<svg width="58" height="40" viewBox="0 0 58 40" fill="none" xmlns="http://www.w3.org/2000/svg">
<path d="M13 20.5C15.9636 20.5 18.6224 21.2108 20.5234 22.334C22.4357 23.4639 23.5 24.9535 23.5 26.5C23.5 28.0465 22.4357 29.5361 20.5234 30.666C18.6224 31.7892 15.9636 32.5 13 32.5C10.0364 32.5 7.37758 31.7892 5.47656 30.666C3.56434 29.5361 2.5 28.0465 2.5 26.5C2.5 24.9535 3.56434 23.4639 5.47656 22.334C7.37758 21.2108 10.0364 20.5 13 20.5Z" fill="#00BA13" stroke="#4A4A4A"/>
<path d="M2 30C15.4313 37.8382 29.2357 33.2659 34.4589 30" stroke="#4A4A4A" stroke-width="4" stroke-linecap="round"/>
<path d="M46 19.5C48.9501 19.5 51.5989 20.316 53.4961 21.6094C55.3959 22.9047 56.5 24.6429 56.5 26.5C56.5 28.3571 55.3959 30.0953 53.4961 31.3906C51.5989 32.684 48.9501 33.5 46 33.5C43.0499 33.5 40.4011 32.684 38.5039 31.3906C36.6041 30.0953 35.5 28.3571 35.5 26.5C35.5 24.6429 36.6041 22.9047 38.5039 21.6094C40.4011 20.316 43.0499 19.5 46 19.5Z" fill="#00BA13" stroke="#4A4A4A"/>
<path d="M23 30C36.4313 37.8382 50.2357 33.2659 55.4589 30" stroke="#4A4A4A" stroke-width="4" stroke-linecap="round"/>
<ellipse cx="29.5" cy="29.5" rx="15.5" ry="9.5" fill="#00BA13"/>
<path d="M14 34C26 41.2444 38.3333 37.0185 43 34" stroke="#4A4A4A" stroke-width="4" stroke-linecap="round"/>
<circle cx="12.5" cy="8.5" r="5.5" stroke="#4A4A4A" stroke-width="4"/>
<circle cx="46" cy="8" r="6" stroke="#4A4A4A" stroke-width="4"/>
<circle cx="29.1032" cy="8.10322" r="6.10322" stroke="#4A4A4A" stroke-width="4"/>
<path d="M2 29C4 16 17 18 19 21.9999" stroke="#4A4A4A" stroke-width="4" stroke-linecap="round"/>
<path d="M56 29.9997C55.5 15.9995 40 17.5002 38 23" stroke="#4A4A4A" stroke-width="4" stroke-linecap="round"/>
<path d="M15 33.5C18.5 12.5001 43.5 18.5 43 34.0002" stroke="#4A4A4A" stroke-width="4" stroke-linecap="round"/>
</svg>
